<svg xmlns="http://www.w3.org/2000/svg" fill="none" viewBox="0 0 96 96" id="Angular-Icon--Streamline-Svg-Logos" height="24" width="24">
  <path fill="#e40035" d="m92.4018 16.6719-3.2066 50.3536L58.5364 1l33.8654 15.6719ZM71.1664 81.7817 48.0004 95 24.834 81.7817l4.7118-11.4188h36.9089l4.7117 11.4188Zm-23.166-55.7195 12.1391 29.512H35.861l12.1394-29.512ZM6.77245 67.0255 3.59863 16.6719 37.4641 1 6.77245 67.0255Z"></path>
  <path fill="#e40035" d="m92.4018 16.6719-3.2066 50.3536L58.5364 1l33.8654 15.6719ZM71.1664 81.7817 48.0004 95 24.834 81.7817l4.7118-11.4188h36.9089l4.7117 11.4188Zm-23.166-55.7195 12.1391 29.512H35.861l12.1394-29.512ZM6.77245 67.0255 3.59863 16.6719 37.4641 1 6.77245 67.0255Z"></path>
</svg>