<svg xmlns="http://www.w3.org/2000/svg" fill="none" viewBox="0 0 24 24" id="Nestjs--Streamline-Svg-Logos" height="24" width="24">
  <path fill="#e0234e" d="M14.087075 0.2960825c-0.169925 0 -0.327725 0.0364125 -0.473375 0.0849625 0.3095 0.2063425 0.47945 0.4794475 0.5644 0.78896 0.0061 0.0424825 0.0182 0.0728275 0.0243 0.1153075 0.006075 0.036415 0.012125 0.0728275 0.012125 0.1092425 0.024275 0.5340625 -0.1396 0.60082 -0.2549 0.916405 -0.176 0.406615 -0.12745 0.84359 0.08495 1.195565 0.018225 0.0425 0.0425 0.09105 0.07285 0.133525 -0.230625 -1.5354325 1.049925 -1.7660525 1.2866 -2.245495 0.0182 -0.418755 -0.327725 -0.697925 -0.600825 -0.89213 -0.26095 -0.1577925 -0.49765 -0.2063425 -0.716125 -0.2063425Zm1.9299 0.3459275c-0.024275 0.139585 -0.006075 0.10317 -0.012125 0.1759975 -0.006075 0.04855 -0.006075 0.1092425 -0.012125 0.1577925 -0.012125 0.04855 -0.024275 0.0971025 -0.042475 0.145655 -0.012125 0.04855 -0.03035 0.0971025 -0.04855 0.1456525 -0.0243 0.0485525 -0.0425 0.0910325 -0.066775 0.139585 -0.0182 0.024285 -0.030325 0.04855 -0.04855 0.0728275 -0.012125 0.0182075 -0.024275 0.0364125 -0.0364 0.05462 -0.03035 0.042485 -0.0607 0.084965 -0.091025 0.1213775 -0.036425 0.036415 -0.066775 0.078895 -0.10925 0.1092425l0 0.006075c-0.036425 0.030345 -0.072825 0.06676 -0.1153 0.0971025 -0.12745 0.0971025 -0.273125 0.16993 -0.406625 0.2609625 -0.042475 0.030345 -0.084975 0.0546225 -0.121375 0.091035 -0.0425 0.030345 -0.0789 0.0606875 -0.115325 0.0971025 -0.042475 0.0364125 -0.072825 0.0728275 -0.109225 0.11531 -0.03035 0.036415 -0.066775 0.0789025 -0.09105 0.1213775 -0.03035 0.042475 -0.060675 0.084975 -0.08495 0.12745 -0.0243 0.04855 -0.0425 0.091025 -0.066775 0.139575 -0.0182 0.04855 -0.0364 0.09105 -0.04855 0.1396 -0.0182 0.0546 -0.030325 0.103175 -0.042475 0.151725 -0.006075 0.024275 -0.006075 0.0546 -0.012125 0.078875 -0.006075 0.0243 -0.0061 0.04855 -0.012125 0.07285 0 0.04855 -0.006075 0.10315 -0.006075 0.1517 0 0.036425 0 0.072825 0.006075 0.10925 0 0.04855 0.006075 0.0971 0.0182 0.151725 0.006075 0.04855 0.0182 0.0971 0.03035 0.14565 0.0182 0.04855 0.03035 0.0971 0.04855 0.14565 0.012125 0.03035 0.03035 0.0607 0.042475 0.084975l-1.39585 -0.54015c-0.236675 -0.06675 -0.4673 -0.127425 -0.704 -0.18205 -0.127425 -0.03035 -0.254875 -0.0607 -0.382325 -0.09105 -0.36415 -0.072825 -0.73435 -0.127425 -1.10455 -0.16385 -0.012125 0 -0.0182 -0.006075 -0.03035 -0.006075 -0.364125 -0.0364 -0.7222 -0.054625 -1.086325 -0.054625 -0.267025 0 -0.534075 0.012125 -0.795025 0.03035 -0.3702 0.024275 -0.7404 0.072825 -1.110625 0.133525 -0.091025 0.012125 -0.18205 0.030325 -0.2731 0.04855 -0.188125 0.0364 -0.3702 0.0789 -0.5462 0.121375 -0.091025 0.024275 -0.18205 0.04855 -0.2731 0.072825 -0.091025 0.0364 -0.176 0.0789 -0.26095 0.1153 -0.066775 0.03035 -0.133525 0.0607 -0.200275 0.09105 -0.012125 0.006075 -0.0243 0.006075 -0.03035 0.012125 -0.0607 0.03035 -0.1153 0.0546 -0.169925 0.08495 -0.0182 0.006075 -0.03035 0.012125 -0.042475 0.018225 -0.066775 0.030325 -0.133525 0.06675 -0.18815 0.0971 -0.042475 0.0182 -0.08495 0.042475 -0.121375 0.060675 -0.0182 0.012125 -0.042475 0.0243 -0.054625 0.03035 -0.054625 0.03035 -0.109225 0.0607 -0.1578 0.091025 -0.0546 0.03035 -0.10315 0.0607 -0.14565 0.09105 -0.042475 0.03035 -0.08495 0.054625 -0.121375 0.08495 -0.006075 0.006075 -0.012125 0.006075 -0.0182 0.012125 -0.036425 0.0243 -0.0789 0.054625 -0.1153 0.084975 0 0 -0.0061 0.006075 -0.01215 0.012125 -0.030325 0.0243 -0.060675 0.04855 -0.091025 0.072825 -0.012125 0.006075 -0.024275 0.0182 -0.036425 0.0243 -0.030325 0.024275 -0.060675 0.0546 -0.091025 0.0789 -0.006075 0.012125 -0.0182 0.0182 -0.024275 0.024275 -0.036425 0.0364 -0.072825 0.06675 -0.10925 0.103175 -0.006075 0 -0.006075 0.006075 -0.012125 0.012125 -0.036425 0.03035 -0.072825 0.06675 -0.10925 0.103175 -0.006075 0.006075 -0.006075 0.012125 -0.012125 0.012125 -0.030325 0.03035 -0.060675 0.0607 -0.091025 0.0971 -0.012125 0.012125 -0.03035 0.024275 -0.042475 0.0364 -0.03035 0.036425 -0.066775 0.07285 -0.103175 0.10925 -0.006075 0.012125 -0.0182 0.0182 -0.0243 0.03035 -0.04855 0.04855 -0.091025 0.0971 -0.139575 0.14565l-0.0182 0.0182c-0.0971 0.103175 -0.200275 0.20635 -0.309525 0.297375 -0.109225 0.0971 -0.22455 0.18815 -0.33985 0.26705 -0.121375 0.08495 -0.2367 0.157775 -0.36415 0.2306 -0.121375 0.066775 -0.248825 0.12745 -0.382325 0.182075 -0.12745 0.054625 -0.260975 0.103175 -0.394485 0.14565 -0.2548975 0.054625 -0.51586 0.1578 -0.74041 0.176 -0.04855 0 -0.10317 0.012125 -0.15172 0.0182 -0.0546225 0.01215 -0.1031725 0.0243 -0.1517225 0.036425 -0.04855 0.0182 -0.097105 0.036425 -0.145655 0.054625 -0.0485525 0.0182 -0.0971025 0.042475 -0.1456525 0.06675 -0.042485 0.03035 -0.091035 0.054625 -0.1335175 0.084975 -0.0424825 0.030325 -0.084965 0.06675 -0.12138 0.103175 -0.04248 0.030325 -0.0849625 0.072825 -0.1213775 0.109225 -0.0364125 0.0425 -0.0728275 0.0789 -0.10317 0.121375 -0.030345 0.04855 -0.0667575 0.09105 -0.091035 0.1396 -0.030345 0.042475 -0.0606875 0.091025 -0.084965 0.139575 -0.024285 0.054625 -0.04855 0.103175 -0.0667575 0.1578 -0.0182075 0.04855 -0.0364125 0.103175 -0.05462 0.1578 -0.0121275 0.04855 -0.024285 0.0971 -0.030345 0.14565 0 0.006075 -0.0060775 0.012125 -0.0060775 0.0182 -0.0121275 0.054625 -0.0121275 0.12745 -0.0182075 0.16385 -0.0060775 0.0425 -0.0121275 0.0789 -0.0121275 0.1214 0 0.024275 0 0.0546 0.0060775 0.078875 0.00608 0.0425 0.01213 0.0789 0.024285 0.115325 0.01213 0.0364 0.0242875 0.072825 0.0424825 0.109225l0 0.006075c0.018205 0.036425 0.0424825 0.07285 0.0667575 0.10925 0.024285 0.036425 0.0485525 0.072825 0.0788975 0.10925 0.0303425 0.03035 0.0667575 0.06675 0.10317 0.0971 0.036415 0.0364 0.0728275 0.06675 0.11531 0.0971 0.1456525 0.12745 0.1820675 0.169925 0.3702025 0.267025 0.030345 0.0182 0.0606925 0.03035 0.097105 0.04855 0.00608 0 0.0121275 0.006075 0.0182075 0.006075 0 0.012125 0 0.018225 0.0060775 0.03035 0.00608 0.04855 0.0182075 0.0971 0.030345 0.14565 0.0121275 0.054625 0.0303475 0.103175 0.0485525 0.14565 0.0182075 0.036425 0.030345 0.07285 0.0485525 0.10925 0.0060775 0.012125 0.0121275 0.0243 0.018205 0.03035 0.0242875 0.04855 0.0485525 0.091025 0.072825 0.133525 0.0303475 0.042475 0.06069 0.08495 0.091035 0.127425 0.030345 0.036425 0.0667575 0.0789 0.1031725 0.115325 0.0364125 0.0364 0.0728275 0.06675 0.11531 0.103175 0 0 0.00608 0.006075 0.0121275 0.006075 0.036415 0.03035 0.0728275 0.0607 0.1092425 0.084975 0.04248 0.030325 0.084965 0.0546 0.133515 0.078875 0.0424825 0.0243 0.091035 0.04855 0.139585 0.066775 0.0364125 0.0182 0.078895 0.03035 0.1213775 0.042475 0.00608 0.0061 0.0121275 0.0061 0.024285 0.012125 0.024285 0.0061 0.0546175 0.012125 0.078895 0.018225 -0.0182075 0.3277 -0.024285 0.637225 0.024285 0.746475 0.0546175 0.121375 0.3216425 -0.248825 0.5886925 -0.67365 -0.036425 0.41875 -0.0607 0.910325 0 1.055975 0.06675 0.151725 0.430875 -0.32165 0.746475 -0.843575 4.30285 -0.9953 8.22945 1.978475 8.642125 6.17815 -0.0789 -0.65545 -0.886075 -1.019575 -1.256275 -0.92855 -0.18205 0.4491 -0.491575 1.02565 -0.989225 1.383725 0.042475 -0.40055 0.024275 -0.81325 -0.060675 -1.2138 -0.133525 0.55835 -0.3945 1.080275 -0.75255 1.529375 -0.57655 0.042475 -1.1531 -0.236675 -1.45655 -0.65545 -0.024275 -0.0182 -0.03035 -0.0546 -0.04855 -0.078875 -0.0182 -0.0425 -0.036425 -0.084975 -0.04855 -0.12745 -0.0182 -0.0425 -0.03035 -0.084975 -0.036425 -0.12745 -0.006075 -0.0425 -0.006075 -0.084975 -0.006075 -0.133525l0 -0.091025c0.006075 -0.042475 0.0182 -0.084975 0.03035 -0.12745 0.012125 -0.042475 0.024275 -0.084975 0.042475 -0.12745 0.0243 -0.042475 0.0425 -0.084975 0.072825 -0.12745 0.103175 -0.2913 0.103175 -0.528 -0.08495 -0.667575 -0.036425 -0.024275 -0.072825 -0.042475 -0.115325 -0.0607 -0.024275 -0.006075 -0.0546 -0.0182 -0.078875 -0.024275 -0.018225 -0.006075 -0.03035 -0.012125 -0.04855 -0.0182 -0.0425 -0.012125 -0.084975 -0.0243 -0.12745 -0.03035 -0.0425 -0.012125 -0.084975 -0.0182 -0.12745 -0.0182 -0.0425 -0.0061 -0.09105 -0.012125 -0.133525 -0.012125 -0.03035 0 -0.060675 0.006075 -0.091025 0.006075 -0.04855 0 -0.09105 0.006075 -0.133525 0.0182 -0.042475 0.006075 -0.08495 0.012125 -0.12745 0.024275 -0.042475 0.012125 -0.08495 0.0243 -0.12745 0.0425 -0.042475 0.0182 -0.078875 0.0364 -0.121375 0.0546 -0.0364 0.018225 -0.072825 0.0425 -0.1153 0.0607 -1.41405 0.922475 -0.570475 3.083 0.394475 3.7081 -0.364125 0.06675 -0.734325 0.14565 -0.8375 0.22455l-0.012125 0.012125c0.26095 0.1578 0.53405 0.291325 0.8193 0.406625 0.3884 0.12745 0.801075 0.24275 0.98315 0.2913v0.006075c0.503725 0.103175 1.013525 0.1396 1.529375 0.10925 2.688525 -0.188125 4.89155 -2.23335 5.292075 -4.92795 0.01215 0.054625 0.0243 0.103175 0.036425 0.157775 0.0182 0.10925 0.042475 0.22455 0.054625 0.339875l0 0.006075c0.012125 0.054625 0.0182 0.10925 0.024275 0.1578l0 0.024275c0.0061 0.054625 0.012125 0.10925 0.012125 0.1578 0.006075 0.06675 0.012125 0.1335 0.012125 0.200275l0 0.0971c0 0.03035 0.0061 0.06675 0.0061 0.0971 0 0.036425 -0.0061 0.072825 -0.0061 0.10925l0 0.08495c0 0.0425 -0.006075 0.0789 -0.006075 0.121375 0 0.0243 0 0.04855 -0.006075 0.0789 0 0.0425 -0.006075 0.084975 -0.006075 0.133525 -0.006075 0.0182 -0.0061 0.0364 -0.0061 0.054625 -0.006075 0.04855 -0.012125 0.091025 -0.0182 0.139575 0 0.0182 0 0.036425 -0.006075 0.054625 -0.006075 0.060675 -0.0182 0.1153 -0.024275 0.176v0.01215c-0.012125 0.054625 -0.0243 0.115325 -0.036425 0.169925l0 0.018225c-0.012125 0.0546 -0.024275 0.109225 -0.0364 0.16385 0 0.006075 -0.006075 0.0182 -0.006075 0.024275 -0.01215 0.054625 -0.0243 0.10925 -0.0425 0.163875l0 0.0182c-0.0182 0.0607 -0.0364 0.115325 -0.04855 0.169925 -0.006075 0.006075 -0.006075 0.01215 -0.006075 0.01215 -0.0182 0.060675 -0.0364 0.121375 -0.054625 0.18205 -0.024275 0.0607 -0.042475 0.115325 -0.06675 0.176 -0.024275 0.0607 -0.042475 0.121375 -0.06675 0.176 -0.0243 0.0607 -0.04855 0.115325 -0.072825 0.176h-0.0061c-0.024275 0.054625 -0.04855 0.1153 -0.0789 0.169925 -0.006075 0.0182 -0.012125 0.03035 -0.0182 0.042475 -0.006075 0.0061 -0.006075 0.01215 -0.012125 0.018225 -0.394475 0.795025 -0.9771 1.49295 -1.705375 2.03915 -0.04855 0.03035 -0.0971 0.06675 -0.14565 0.103175 -0.012125 0.012125 -0.03035 0.0182 -0.042475 0.030325 -0.042475 0.03035 -0.084975 0.0607 -0.133525 0.09105l0.018225 0.0364h0.006075c0.08495 -0.012125 0.169925 -0.024275 0.2549 -0.0364h0.006075c0.157775 -0.024275 0.315575 -0.054625 0.473375 -0.084975 0.042475 -0.006075 0.091025 -0.0182 0.1335 -0.03035 0.03035 -0.006075 0.054625 -0.012125 0.084975 -0.0182 0.042475 -0.006075 0.08495 -0.0182 0.12745 -0.024275 0.0364 -0.012125 0.072825 -0.018225 0.109225 -0.03035 0.6069 -0.14565 1.195575 -0.345925 1.76 -0.582625 -0.964975 1.31695 -2.25765 2.379025 -3.7688 3.07695 0.697925 -0.04855 1.39585 -0.163875 2.0695 -0.358075 2.445775 -0.7222 4.503125 -2.366875 5.735125 -4.582025 -0.248825 1.401925 -0.807175 2.737075 -1.63255 3.902325 0.5887 -0.388425 1.128825 -0.837525 1.6204 -1.3473 1.35945 -1.420125 2.251575 -3.2226 2.555025 -5.158575 0.206325 0.958875 0.267025 1.948125 0.176 2.9252 4.381675 -6.111375 0.364125 -12.447325 -1.316975 -14.116275 -0.006075 -0.012125 -0.012125 -0.0182 -0.012125 -0.03035 -0.006075 0.006075 -0.006075 0.006075 -0.006075 0.012125 0 -0.006075 0 -0.006075 -0.006075 -0.012125 0 0.072825 -0.006075 0.14565 -0.012125 0.218475 -0.018225 0.1396 -0.036425 0.2731 -0.0607 0.406625 -0.03035 0.133525 -0.06675 0.267025 -0.103175 0.40055 -0.042475 0.12745 -0.091025 0.26095 -0.14565 0.3884 -0.054625 0.121375 -0.1153 0.248825 -0.182075 0.3702 -0.06675 0.115325 -0.139575 0.2367 -0.218475 0.345925 -0.0789 0.115325 -0.16385 0.22455 -0.248825 0.327725 -0.091025 0.10925 -0.188125 0.20635 -0.285225 0.30345 -0.0607 0.054625 -0.115325 0.103175 -0.176 0.151725 -0.04855 0.042475 -0.09105 0.0789 -0.1396 0.121375 -0.109225 0.084975 -0.218475 0.163875 -0.33985 0.2367 -0.1153 0.072825 -0.236675 0.14565 -0.358075 0.206325 -0.12745 0.0607 -0.254875 0.115325 -0.382325 0.16995 -0.12745 0.04855 -0.260975 0.091025 -0.3945 0.12745 -0.1335 0.0364 -0.2731 0.06675 -0.4066 0.091025 -0.1396 0.024275 -0.279175 0.0364 -0.4127 0.04855 -0.0971 0.006075 -0.1942 0.012125 -0.2913 0.012125 -0.139575 0 -0.279175 -0.012125 -0.412675 -0.024275 -0.1396 -0.012125 -0.279175 -0.03035 -0.4127 -0.0607 -0.139575 -0.024275 -0.2731 -0.0607 -0.406625 -0.103175h-0.006075c0.133525 -0.012125 0.26705 -0.024275 0.40055 -0.04855 0.1396 -0.024275 0.2731 -0.054625 0.406625 -0.091025 0.133525 -0.036425 0.267025 -0.0789 0.394475 -0.12745 0.133525 -0.04855 0.260975 -0.10925 0.38235 -0.169925 0.12745 -0.0607 0.24275 -0.12745 0.364125 -0.200275 0.115325 -0.0789 0.230625 -0.1578 0.339875 -0.242775 0.109225 -0.08495 0.2124 -0.175975 0.3095 -0.2731 0.103175 -0.091025 0.1942 -0.1942 0.28525 -0.297375 0.091025 -0.109225 0.176 -0.218475 0.2549 -0.3277 0.012125 -0.018225 0.024275 -0.0425 0.0364 -0.0607 0.0607 -0.0971 0.121375 -0.1942 0.176 -0.2913 0.06675 -0.121375 0.12745 -0.242775 0.182075 -0.3702 0.0546 -0.12745 0.103175 -0.2549 0.14565 -0.388425 0.042475 -0.12745 0.072825 -0.26095 0.103175 -0.394475 0.024275 -0.139575 0.04855 -0.2731 0.060675 -0.406625 0.012125 -0.139575 0.0243 -0.279175 0.0243 -0.412675 0 -0.0971 -0.0061 -0.1942 -0.012125 -0.2913 -0.01215 -0.1396 -0.03035 -0.273125 -0.048575 -0.406625 -0.024275 -0.1396 -0.0546 -0.2731 -0.091025 -0.406625 -0.042475 -0.12745 -0.084975 -0.26095 -0.1335 -0.3884 -0.048575 -0.12745 -0.10925 -0.2549 -0.16995 -0.376275 -0.06675 -0.121375 -0.1335 -0.24276 -0.206325 -0.3580675 -0.0789 -0.1153075 -0.1578 -0.22455 -0.242775 -0.33379 -0.091025 -0.1031725 -0.18205 -0.2063425 -0.279175 -0.309515 -0.04855 -0.04855 -0.10315 -0.10317 -0.157775 -0.15172 -0.2731 -0.212415 -0.55835 -0.41269 -0.843575 -0.594755 -0.0425 -0.024285 -0.0789 -0.0424825 -0.121375 -0.0606925 -0.200275 -0.127445 -0.388425 -0.1942375 -0.576575 -0.254925Z" stroke-width="0.25"></path>
</svg>