<svg xmlns="http://www.w3.org/2000/svg" fill="none" viewBox="0 0 96 96" id="Python--Streamline-Svg-Logos" height="24" width="24">
  <path fill="#366994" d="M47.6611 1.24463c-23.863 0-22.3728 10.34847-22.3728 10.34847l.0266 10.7209h22.7719v3.2189H16.27S1 23.8011 1 47.8792c-.000002 24.078 13.328 23.2241 13.328 23.2241h7.9542V59.9302s-.4288-13.328 13.1151-13.328H57.983s12.6895.2052 12.6895-12.2638V13.7213S72.5991 1.24463 47.6611 1.24463ZM35.1047 8.45396c2.2656 0 4.0968 1.83114 4.0968 4.09684 0 2.2656-1.8312 4.0968-4.0968 4.0968-2.2657 0-4.0968-1.8312-4.0968-4.0968 0-2.2657 1.8311-4.09684 4.0968-4.09684Z"></path>
  <path fill="#ffc331" d="M48.3393 94.7555c23.8631 0 22.3729-10.3484 22.3729-10.3484l-.0266-10.7209H47.9137v-3.2189h31.8168s15.27 1.7317 15.27-22.3463-13.328-23.2242-13.328-23.2242h-7.9542v11.1731s.4288 13.328-13.1151 13.328H38.0175S25.328 49.1928 25.328 61.6618v20.6171s-1.9267 12.4766 23.0113 12.4766Zm12.5565-7.2093c-2.2657 0-4.0968-1.8312-4.0968-4.0968 0-2.2657 1.8311-4.0968 4.0968-4.0968 2.2656 0 4.0968 1.8311 4.0968 4.0968 0 2.2656-1.8312 4.0968-4.0968 4.0968Z"></path>
</svg>