<svg width="24" height="24" viewBox="0 0 24 24" fill="none" xmlns="http://www.w3.org/2000/svg">
<rect width="24" height="24" rx="5" fill="black"/>
<path d="M4.66 17V6.98H7.03V14.915H11.83V17H4.66ZM12.7166 17V6.98H16.5716C17.4416 6.98 18.2166 7.07 18.8966 7.25C19.5866 7.43 20.1266 7.755 20.5166 8.225C20.9166 8.695 21.1166 9.37 21.1166 10.25C21.1166 11.12 20.9166 11.795 20.5166 12.275C20.1266 12.745 19.5866 13.07 18.8966 13.25C18.2166 13.43 17.4416 13.52 16.5716 13.52H15.0866V17H12.7166ZM15.0866 11.555H16.6466C17.0166 11.555 17.3466 11.52 17.6366 11.45C17.9366 11.38 18.1716 11.25 18.3416 11.06C18.5216 10.87 18.6116 10.6 18.6116 10.25C18.6116 9.9 18.5216 9.635 18.3416 9.455C18.1716 9.265 17.9366 9.14 17.6366 9.08C17.3466 9.01 17.0166 8.975 16.6466 8.975H15.0866V11.555Z" fill="white"/>
</svg>
